<?xml version="1.0" encoding="UTF-8"?>
<svg version="1.1" xmlns="http://www.w3.org/2000/svg" width="500" height="500">
<path d="M0 0 C1.43182617 -0.01160156 1.43182617 -0.01160156 2.89257812 -0.0234375 C8.96609077 -0.00667142 14.49906517 0.25348946 19.875 3.375 C21.6692046 6.54124341 21.53291704 9.76856155 20.9375 13.25 C19.5625 15.75 19.5625 15.75 16.9375 17.25 C13.57655152 17.56607666 10.3018667 17.4811397 6.9375 17.25 C6.9375 19.56 6.9375 21.87 6.9375 24.25 C8.8865625 24.12625 8.8865625 24.12625 10.875 24 C33.43985273 24.03191634 54.10987773 35.58833646 71.9375 48.25 C72.9275 48.91 73.9175 49.57 74.9375 50.25 C74.9375 50.91 74.9375 51.57 74.9375 52.25 C75.52015625 52.5078125 76.1028125 52.765625 76.703125 53.03125 C79.1177903 54.34834017 80.75490177 55.80088384 82.6875 57.75 C83.30109375 58.3584375 83.9146875 58.966875 84.546875 59.59375 C85.9375 61.25 85.9375 61.25 85.9375 63.25 C86.5975 63.25 87.2575 63.25 87.9375 63.25 C87.9375 63.91 87.9375 64.57 87.9375 65.25 C88.5975 65.25 89.2575 65.25 89.9375 65.25 C104.38838441 82.7549373 113.96587533 104.96426589 114.43359375 127.7265625 C113.79137686 130.99327201 112.47185534 132.1639943 109.9375 134.25 C106.68653986 135.87548007 103.10975549 135.39796407 99.53717041 135.39717102 C98.65764765 135.40084771 97.77812488 135.4045244 96.87194991 135.4083125 C93.90714049 135.41937826 90.94236608 135.42319807 87.97753906 135.42700195 C85.85892627 135.43326441 83.74031458 135.43991101 81.6217041 135.44691467 C75.85301243 135.46434443 70.08432906 135.47488177 64.31561756 135.4831202 C60.71376462 135.48826605 57.11191428 135.49434196 53.51006317 135.50063133 C42.24721432 135.51968871 30.98437205 135.53391882 19.72151017 135.5422433 C6.70835678 135.55201946 -6.30462668 135.57834671 -19.31772017 135.61874419 C-29.36787874 135.64887595 -39.41798852 135.66370938 -49.46819139 135.66702431 C-55.47451446 135.66937811 -61.48065611 135.67838151 -67.48693085 135.70348549 C-73.13728557 135.72671975 -78.78733882 135.73101806 -84.43772888 135.72072411 C-86.51219433 135.72022751 -88.58667437 135.72658428 -90.66109467 135.74028015 C-93.49250508 135.75792859 -96.32282533 135.75092754 -99.15423584 135.73774719 C-99.97583938 135.74871644 -100.79744293 135.75968568 -101.64394355 135.77098733 C-106.89393618 135.71195435 -109.9038779 134.74232825 -114.0625 131.25 C-115.3046875 128.890625 -115.3046875 128.890625 -115.9375 126.5 C-116.16179687 125.70078125 -116.38609375 124.9015625 -116.6171875 124.078125 C-116.76414062 123.47484375 -116.91109375 122.8715625 -117.0625 122.25 C-124.28215046 121.22207657 -131.49858346 120.29458978 -138.75390625 119.5546875 C-139.93557373 119.43198486 -141.11724121 119.30928223 -142.3347168 119.18286133 C-144.6986078 118.93985647 -147.06335782 118.70503927 -149.42895508 118.47924805 C-156.05501145 117.79157965 -161.83220038 116.62439232 -168.0625 114.25 C-168.0625 112.93 -168.0625 111.61 -168.0625 110.25 C-159.2923584 105.30907516 -147.01437687 105.85215885 -137.17626953 105 C-123.29879238 104.05196529 -123.29879238 104.05196529 -110.0625 100.25 C-108.50827234 98.13124421 -108.50827234 98.13124421 -107.6875 95.625 C-107.14583333 94.16666667 -106.60416667 92.70833333 -106.0625 91.25 C-107.50568604 91.25652588 -107.50568604 91.25652588 -108.97802734 91.26318359 C-118.88708369 91.29409595 -128.78262621 91.15894639 -138.6875 90.875 C-139.43286011 90.85388153 -140.17822021 90.83276306 -140.94616699 90.81100464 C-198.31703986 89.13914472 -198.31703986 89.13914472 -207.0625 83.25 C-206.7325 82.26 -206.4025 81.27 -206.0625 80.25 C-200.99681376 78.37647944 -195.91544718 77.7143917 -190.5625 77.1875 C-189.7384668 77.10371094 -188.91443359 77.01992187 -188.06542969 76.93359375 C-180.86898825 76.24488758 -173.67466082 75.91794729 -166.45263672 75.63989258 C-148.32605105 74.9305914 -130.20577059 73.89548427 -112.1875 71.75 C-111.19057129 71.63156738 -110.19364258 71.51313477 -109.16650391 71.39111328 C-100.46306523 70.48146714 -100.46306523 70.48146714 -92.0625 68.25 C-91.0725 66.765 -91.0725 66.765 -90.0625 65.25 C-89.4025 65.25 -88.7425 65.25 -88.0625 65.25 C-87.4025 63.93 -86.7425 62.61 -86.0625 61.25 C-98.01670096 60.14971382 -109.93684404 59.1909081 -121.9375 58.8125 C-130.77094081 58.50604868 -139.52542134 57.83240177 -148.3125 56.875 C-149.42608887 56.76099854 -150.53967773 56.64699707 -151.68701172 56.52954102 C-152.7235791 56.40893311 -153.76014648 56.2883252 -154.828125 56.1640625 C-156.20145996 56.0086499 -156.20145996 56.0086499 -157.60253906 55.85009766 C-160.36844314 55.17536639 -161.92352293 54.09491455 -164.0625 52.25 C-163.7325 51.26 -163.4025 50.27 -163.0625 49.25 C-149.08841595 43.49144888 -131.25852918 44.5263346 -116.38671875 43.53125 C-114.95491524 43.43505371 -114.95491524 43.43505371 -113.4941864 43.33691406 C-108.67553439 43.01382711 -103.85664758 42.69640624 -99.03686523 42.390625 C-72.12045961 40.89060805 -72.12045961 40.89060805 -46.625 32.875 C-40.29477963 29.95276389 -33.96439876 27.945589 -27.1875 26.3125 C-26.3322876 26.10125488 -25.4770752 25.89000977 -24.59594727 25.67236328 C-18.68518402 24.32737182 -13.11346321 24.01044574 -7.0625 24.25 C-7.0625 21.94 -7.0625 19.63 -7.0625 17.25 C-8.07570313 17.30220703 -8.07570313 17.30220703 -9.109375 17.35546875 C-10.00140625 17.38253906 -10.8934375 17.40960938 -11.8125 17.4375 C-13.13507813 17.48970703 -13.13507813 17.48970703 -14.484375 17.54296875 C-17.61931386 17.1867257 -18.91418787 16.55744636 -21.0625 14.25 C-21.453125 11.76953125 -21.453125 11.76953125 -21.3125 9.0625 C-21.27640625 8.16144531 -21.2403125 7.26039063 -21.203125 6.33203125 C-21.15671875 5.64496094 -21.1103125 4.95789063 -21.0625 4.25 C-20.4025 4.25 -19.7425 4.25 -19.0625 4.25 C-19.0625 3.59 -19.0625 2.93 -19.0625 2.25 C-12.59894989 0.3269603 -6.72350227 -0.05469968 0 0 Z M-4.0625 41.25 C-3.80688677 43.5931213 -3.46979228 45.92843403 -3.0625 48.25 C-0.36290779 49.5997961 2.29022668 49.59614706 5.26025391 49.84521484 C13.97859656 50.58744987 21.79949131 51.86223168 29.9375 55.25 C30.80246094 55.60578125 31.66742188 55.9615625 32.55859375 56.328125 C35.92399276 57.7712081 38.88067774 59.21211849 41.9375 61.25 C42.9275 61.25 43.9175 61.25 44.9375 61.25 C44.9375 61.91 44.9375 62.57 44.9375 63.25 C48.57073689 66.21235695 48.57073689 66.21235695 52.9375 67.25 C52.9375 67.91 52.9375 68.57 52.9375 69.25 C54.69271948 70.98693158 54.69271948 70.98693158 56.875 72.75 C60.83629154 76.04758308 60.83629154 76.04758308 61.9375 78.25 C62.5975 78.25 63.2575 78.25 63.9375 78.25 C64.34355469 79.09304687 64.34355469 79.09304687 64.7578125 79.953125 C66.43399709 83.21668969 68.38098786 86.29963998 70.3046875 89.421875 C74.08482223 95.9692854 76.85204011 102.47897006 79.125 109.6875 C80.3815721 114.86334841 80.3815721 114.86334841 82.9375 119.25 C85.71447633 119.5423133 87.31928381 119.69158299 89.6328125 118.0390625 C91.15256876 116.31704077 91.15256876 116.31704077 90.96875 114.0078125 C87.86230763 98.61264956 81.11501545 83.34235727 70.9375 71.25 C70.2775 71.25 69.6175 71.25 68.9375 71.25 C68.71320313 70.69699219 68.48890625 70.14398438 68.2578125 69.57421875 C62.18751578 58.88834138 49.49404232 52.58436017 38.9375 47.25 C37.6690625 46.58677734 37.6690625 46.58677734 36.375 45.91015625 C26.79661811 41.24421654 5.69486592 34.74508939 -4.0625 41.25 Z " fill="#FB6101" transform="translate(289.0625,165.75)"/>
<path d="M0 0 C4.25645987 0.66532235 7.86028093 2.12113864 11.8125 3.8125 C19.71706726 7.05450124 27.60963209 9.3944817 36 11 C36.81178711 11.15581543 37.62357422 11.31163086 38.45996094 11.47216797 C41.00963019 11.93110843 43.56063262 12.32031347 46.125 12.6875 C46.91874023 12.82639648 47.71248047 12.96529297 48.53027344 13.10839844 C50.88220322 13.39424065 52.68462235 13.51951215 55 13 C56.79596497 11.38534299 58.03209464 9.77989995 59.31591797 7.73754883 C62.70606179 4.23977359 67.75929309 3.89002598 72.42819023 3.74831772 C74.12306147 3.73739882 75.8180249 3.73732506 77.51290894 3.74603271 C78.45175686 3.74291273 79.39060478 3.73979275 80.35790265 3.73657823 C83.49371181 3.72862152 86.62932622 3.73491289 89.76513672 3.74121094 C92.01754876 3.73850001 94.26995991 3.73493851 96.52236938 3.73059082 C102.63395662 3.72147566 108.74547631 3.7250078 114.85706472 3.73134899 C121.25636571 3.73641471 127.65566094 3.73171583 134.05496216 3.72857666 C145.49182648 3.72470513 156.92865343 3.73091942 168.36551143 3.74109533 C178.72334446 3.75002614 189.08113263 3.74848187 199.43896484 3.73925781 C211.47942441 3.72854026 223.51985013 3.72457881 235.56031621 3.73048234 C241.92932977 3.73359729 248.29831249 3.73402452 254.66732407 3.72740936 C260.65749808 3.72162235 266.64758762 3.72565771 272.63775253 3.73719788 C274.83350484 3.73983743 277.02926428 3.73909142 279.22501373 3.73467255 C282.22781235 3.72918775 285.23034217 3.73608692 288.23312378 3.74603271 C289.09705148 3.74157127 289.96097917 3.73710983 290.8510865 3.73251319 C297.80402158 3.77701948 304.6119743 3.91047752 310 8.625 C312.51759103 12.87343487 313 15.06292905 313 20 C311.62405481 23.64625477 310.08095666 26.56090931 307 29 C304.25635644 29.91454785 302.64771826 30.12739008 299.82364559 30.13422108 C298.96837432 30.13867892 298.11310305 30.14313676 297.23191446 30.14772969 C296.29186691 30.14754533 295.35181936 30.14736097 294.38328552 30.14717102 C293.384785 30.15084771 292.38628448 30.1545244 291.35752636 30.1583125 C287.99542585 30.16936778 284.63335622 30.17319644 281.27124023 30.17700195 C278.86653546 30.1832656 276.46183165 30.18991231 274.05712891 30.19691467 C266.82500566 30.2161623 259.59288495 30.22675013 252.36074385 30.23564246 C248.94959697 30.24002874 245.53845164 30.24539503 242.12730598 30.25063133 C230.77548133 30.26765132 219.42365763 30.28213995 208.07182217 30.28938007 C205.12543677 30.29128981 202.17905138 30.29321016 199.23266602 30.29516602 C198.13427038 30.29589163 198.13427038 30.29589163 197.01368494 30.2966319 C185.18254392 30.30491126 173.3515047 30.3302091 161.52040803 30.36274669 C149.35451062 30.39592986 137.18866469 30.41383934 125.02272183 30.41702431 C118.20002982 30.41918009 111.37748583 30.42778974 104.55483818 30.45348549 C98.12388599 30.47689442 91.69319854 30.48094802 85.26221466 30.47072411 C82.91381763 30.47023162 80.56540701 30.47646637 78.21705055 30.49028015 C61.33074634 30.58397296 45.04143885 29.65931395 29.5625 22.1875 C28.82443115 21.84638184 28.0863623 21.50526367 27.32592773 21.15380859 C21.21074191 18.26041541 15.54661162 14.87948261 10 11 C9.01 10.34 8.02 9.68 7 9 C7 8.34 7 7.68 7 7 C6.401875 6.731875 5.80375 6.46375 5.1875 6.1875 C3.00152146 5.00082594 1.58667406 3.90400887 0 2 C0 1.34 0 0.68 0 0 Z " fill="#FB6101" transform="translate(105,303)"/>
<path d="M0 0 C-2.33019616 2.33019616 -4.2780048 2.69967897 -7.40820312 3.49560547 C-21.78604155 7.17240512 -35.74067479 14.38888872 -46.109375 25.19921875 C-48 27 -48 27 -50 27 C-50.25394531 27.56847656 -50.50789062 28.13695312 -50.76953125 28.72265625 C-52.14942399 31.27655297 -53.79729061 33.23535036 -55.6875 35.4375 C-66.81175836 49.26711339 -71.28582832 63.89447025 -71.4375 81.375 C-71.44773193 82.27790771 -71.45796387 83.18081543 -71.46850586 84.11108398 C-71.37705745 91.08482479 -70.24944233 97.83466194 -66.90014648 104.03662109 C-66 106 -66 106 -66 110 C-4.95 110 56.1 110 119 110 C119 110.33 119 110.66 119 111 C90.94075512 111.09340215 62.88153351 111.16395908 34.82216454 111.20724869 C21.79398785 111.22788221 8.7659077 111.25601805 -4.26220703 111.30175781 C-15.61625557 111.34160121 -26.97023421 111.36742706 -38.32435071 111.37635398 C-44.33742194 111.38157291 -50.35029315 111.39385603 -56.36330032 111.42292023 C-62.02182217 111.45004967 -67.68006141 111.45844989 -73.33864212 111.45243073 C-75.41633642 111.45353206 -77.49404007 111.46150047 -79.57167816 111.4768219 C-82.40755924 111.49671087 -85.24237201 111.49194295 -88.07827759 111.48101807 C-88.90124537 111.49266943 -89.72421315 111.5043208 -90.57211936 111.51632524 C-95.82704036 111.46157195 -98.83790975 110.497102 -103 107 C-104.2421875 104.640625 -104.2421875 104.640625 -104.875 102.25 C-105.09929687 101.45078125 -105.32359375 100.6515625 -105.5546875 99.828125 C-105.70164062 99.22484375 -105.84859375 98.6215625 -106 98 C-113.21965046 96.97207657 -120.43608346 96.04458978 -127.69140625 95.3046875 C-128.87307373 95.18198486 -130.05474121 95.05928223 -131.2722168 94.93286133 C-133.6361078 94.68985647 -136.00085782 94.45503927 -138.36645508 94.22924805 C-144.99251145 93.54157965 -150.76970038 92.37439232 -157 90 C-157 88.68 -157 87.36 -157 86 C-148.2298584 81.05907516 -135.95187687 81.60215885 -126.11376953 80.75 C-112.23629238 79.80196529 -112.23629238 79.80196529 -99 76 C-97.44577234 73.88124421 -97.44577234 73.88124421 -96.625 71.375 C-96.08333333 69.91666667 -95.54166667 68.45833333 -95 67 C-96.44318604 67.00652588 -96.44318604 67.00652588 -97.91552734 67.01318359 C-107.82458369 67.04409595 -117.72012621 66.90894639 -127.625 66.625 C-128.37036011 66.60388153 -129.11572021 66.58276306 -129.88366699 66.56100464 C-187.25453986 64.88914472 -187.25453986 64.88914472 -196 59 C-195.67 58.01 -195.34 57.02 -195 56 C-189.93431376 54.12647944 -184.85294718 53.4643917 -179.5 52.9375 C-178.6759668 52.85371094 -177.85193359 52.76992187 -177.00292969 52.68359375 C-169.80648825 51.99488758 -162.61216082 51.66794729 -155.39013672 51.38989258 C-137.26355105 50.6805914 -119.14327059 49.64548427 -101.125 47.5 C-100.12807129 47.38156738 -99.13114258 47.26313477 -98.10400391 47.14111328 C-89.40056523 46.23146714 -89.40056523 46.23146714 -81 44 C-80.34 43.01 -79.68 42.02 -79 41 C-78.34 41 -77.68 41 -77 41 C-76.34 39.68 -75.68 38.36 -75 37 C-86.95420096 35.89971382 -98.87434404 34.9409081 -110.875 34.5625 C-119.70844081 34.25604868 -128.46292134 33.58240177 -137.25 32.625 C-138.36358887 32.51099854 -139.47717773 32.39699707 -140.62451172 32.27954102 C-141.6610791 32.15893311 -142.69764648 32.0383252 -143.765625 31.9140625 C-144.68118164 31.8104541 -145.59673828 31.7068457 -146.54003906 31.60009766 C-149.30594314 30.92536639 -150.86102293 29.84491455 -153 28 C-152.505 26.515 -152.505 26.515 -152 25 C-138.02591595 19.24144888 -120.19602918 20.2763346 -105.32421875 19.28125 C-104.36968307 19.21711914 -103.4151474 19.15298828 -102.4316864 19.08691406 C-97.61303439 18.76382711 -92.79414758 18.44640624 -87.97436523 18.140625 C-61.0575435 16.64196735 -61.0575435 16.64196735 -35.5625 8.625 C-29.15521414 5.65409868 -22.74584838 3.68598656 -15.875 2.0625 C-14.98627197 1.85125488 -14.09754395 1.64000977 -13.18188477 1.42236328 C-8.70909341 0.42008333 -4.61449518 -0.24963662 0 0 Z " fill="#CF0301" transform="translate(278,190)"/>
<path d="M0 0 C4.25645987 0.66532235 7.86028093 2.12113864 11.8125 3.8125 C19.71706726 7.05450124 27.60963209 9.3944817 36 11 C36.81178711 11.15581543 37.62357422 11.31163086 38.45996094 11.47216797 C41.00963019 11.93110843 43.56063262 12.32031347 46.125 12.6875 C46.91874023 12.82639648 47.71248047 12.96529297 48.53027344 13.10839844 C50.88220322 13.39424065 52.68462235 13.51951215 55 13 C56.79596497 11.38534299 58.03209464 9.77989995 59.31591797 7.73754883 C62.70606179 4.23977359 67.75929309 3.89002598 72.42819023 3.74831772 C74.12306147 3.73739882 75.8180249 3.73732506 77.51290894 3.74603271 C78.45175686 3.74291273 79.39060478 3.73979275 80.35790265 3.73657823 C83.49371181 3.72862152 86.62932622 3.73491289 89.76513672 3.74121094 C92.01754876 3.73850001 94.26995991 3.73493851 96.52236938 3.73059082 C102.63395662 3.72147566 108.74547631 3.7250078 114.85706472 3.73134899 C121.25636571 3.73641471 127.65566094 3.73171583 134.05496216 3.72857666 C145.49182648 3.72470513 156.92865343 3.73091942 168.36551143 3.74109533 C178.72334446 3.75002614 189.08113263 3.74848187 199.43896484 3.73925781 C211.47942441 3.72854026 223.51985013 3.72457881 235.56031621 3.73048234 C241.92932977 3.73359729 248.29831249 3.73402452 254.66732407 3.72740936 C260.65749808 3.72162235 266.64758762 3.72565771 272.63775253 3.73719788 C274.83350484 3.73983743 277.02926428 3.73909142 279.22501373 3.73467255 C282.22781235 3.72918775 285.23034217 3.73608692 288.23312378 3.74603271 C289.09705148 3.74157127 289.96097917 3.73710983 290.8510865 3.73251319 C297.35489654 3.7741446 304.39482763 3.83961316 309.5625 8.125 C310.036875 8.74375 310.51125 9.3625 311 10 C310.67 10.66 310.34 11.32 310 12 C309.34 11.67 308.68 11.34 308 11 C308 10.34 308 9.68 308 9 C305.03 8.67 302.06 8.34 299 8 C299 7.67 299 7.34 299 7 C238.61 7 178.22 7 116 7 C129.54851915 19.19366724 141.75205355 24.59626899 159 29 C159 29.33 159 29.66 159 30 C146.01178669 30.09319637 133.02365458 30.16401489 120.03517342 30.20724869 C114.00233162 30.22801187 107.9697207 30.25612088 101.93701172 30.30175781 C96.10143683 30.34562085 90.26608226 30.36922154 84.43035507 30.37950897 C82.21790988 30.3868284 80.00547503 30.4011185 77.79312515 30.42292023 C61.04270124 30.58123431 44.91335418 29.5974864 29.5625 22.1875 C28.82443115 21.84638184 28.0863623 21.50526367 27.32592773 21.15380859 C21.21074191 18.26041541 15.54661162 14.87948261 10 11 C9.01 10.34 8.02 9.68 7 9 C7 8.34 7 7.68 7 7 C6.401875 6.731875 5.80375 6.46375 5.1875 6.1875 C3.00152146 5.00082594 1.58667406 3.90400887 0 2 C0 1.34 0 0.68 0 0 Z " fill="#D50202" transform="translate(105,303)"/>
<path d="M0 0 C-2.92079514 2.92079514 -6.55182947 3.44114676 -10.4375 4.5 C-11.97920739 4.92221032 -13.51963662 5.3491225 -15.05859375 5.78125 C-15.74236084 5.96751953 -16.42612793 6.15378906 -17.13061523 6.34570312 C-19.29252987 7.01541436 -19.29252987 7.01541436 -22 9 C-24.0859375 9.30859375 -24.0859375 9.30859375 -26.375 9.4375 C-30.37448472 9.80460246 -32.62822822 10.75215214 -36 13 C-41.4952755 15.27881835 -46.6962393 16.71247056 -52.5625 17.625 C-53.33609863 17.75052246 -54.10969727 17.87604492 -54.90673828 18.00537109 C-61.24788304 18.98761922 -67.55421939 19.49594468 -73.9609375 19.7890625 C-76.8018998 19.88050757 -76.8018998 19.88050757 -78.67724609 20.47973633 C-82.15113295 21.25783733 -85.65831064 21.35602676 -89.203125 21.53515625 C-90.39805573 21.59962196 -90.39805573 21.59962196 -91.61712646 21.66539001 C-93.30145599 21.75543 -94.9858882 21.84356652 -96.67041016 21.92993164 C-99.22715383 22.06132591 -101.78349188 22.19910315 -104.33984375 22.33789062 C-105.9817507 22.42486003 -107.62367726 22.51146029 -109.265625 22.59765625 C-110.02111633 22.63826675 -110.77660767 22.67887726 -111.55499268 22.72071838 C-116.37658972 22.96478945 -121.17216228 23.03514753 -126 23 C-126 23.66 -126 24.32 -126 25 C-127.27617187 25.04898438 -128.55234375 25.09796875 -129.8671875 25.1484375 C-131.53648072 25.22346191 -133.20575046 25.29900988 -134.875 25.375 C-136.13763672 25.42140625 -136.13763672 25.42140625 -137.42578125 25.46875 C-138.23144531 25.50742188 -139.03710938 25.54609375 -139.8671875 25.5859375 C-140.61081543 25.6173584 -141.35444336 25.6487793 -142.12060547 25.68115234 C-144.24010974 25.85419551 -144.24010974 25.85419551 -146 28 C-139.12838801 30.000384 -132.44042498 30.60826708 -125.3125 31.0625 C-124.08184814 31.14483887 -122.85119629 31.22717773 -121.58325195 31.31201172 C-105.07471546 32.34245618 -88.53464928 32.66180064 -72 33 C-71.84765625 35.8671875 -71.84765625 35.8671875 -72 39 C-74.4375 41.125 -74.4375 41.125 -77 43 C-77.68942139 45.05786269 -77.68942139 45.05786269 -78 47 C-93.70447594 50.22829891 -109.13868806 51.59669396 -125.11230469 52.34887695 C-126.64519114 52.42119945 -128.17806894 52.49370553 -129.7109375 52.56640625 C-130.44747559 52.60119583 -131.18401367 52.63598541 -131.94287109 52.67182922 C-138.00653609 52.97134772 -143.99337289 53.54805686 -150.01171875 54.32080078 C-156.30156937 55.10703211 -162.59059552 55.34612701 -168.92089844 55.60351562 C-175.38555992 55.89584859 -181.65904795 56.67252426 -188 58 C-187.34 58.33 -186.68 58.66 -186 59 C-186 59.66 -186 60.32 -186 61 C-184.33710938 60.98259766 -184.33710938 60.98259766 -182.640625 60.96484375 C-181.17708502 60.95546208 -179.71354322 60.94636229 -178.25 60.9375 C-177.52039063 60.92912109 -176.79078125 60.92074219 -176.0390625 60.91210938 C-170.41623222 60.88655106 -170.41623222 60.88655106 -168.2578125 61.47485352 C-164.86957131 62.26292735 -161.44746545 62.33709181 -157.984375 62.5 C-157.18792068 62.54028824 -156.39146637 62.58057648 -155.57087708 62.62208557 C-152.96410956 62.75234127 -150.35708793 62.87633719 -147.75 63 C-145.95304048 63.08839649 -144.15608412 63.1768573 -142.35913086 63.26538086 C-129.38999403 63.89267759 -116.41936004 64.36022239 -103.43847656 64.65820312 C-102.20194336 64.68978516 -100.96541016 64.72136719 -99.69140625 64.75390625 C-98.07020874 64.78979858 -98.07020874 64.78979858 -96.41625977 64.82641602 C-94 65 -94 65 -93 66 C-92.40692753 73.11686966 -92.40692753 73.11686966 -94.67626953 76.49609375 C-100.13256907 82.37546001 -108.92802158 83.11469879 -116.61209106 83.52600098 C-120.51213628 83.66653944 -124.41030459 83.71554883 -128.3125 83.75 C-129.93948378 83.77823329 -131.56643892 83.80817064 -133.19335938 83.83984375 C-137.12885329 83.9128242 -141.06401084 83.96292532 -145 84 C-145 83.67 -145 83.34 -145 83 C-141.713456 82.29558407 -138.50552715 81.8064052 -135.15625 81.53515625 C-134.24552734 81.45845703 -133.33480469 81.38175781 -132.39648438 81.30273438 C-131.44064453 81.22345703 -130.48480469 81.14417969 -129.5 81.0625 C-113.89908211 80.12819742 -113.89908211 80.12819742 -99 76 C-97.44577234 73.88124421 -97.44577234 73.88124421 -96.625 71.375 C-96.08333333 69.91666667 -95.54166667 68.45833333 -95 67 C-96.44318604 67.00652588 -96.44318604 67.00652588 -97.91552734 67.01318359 C-107.82458369 67.04409595 -117.72012621 66.90894639 -127.625 66.625 C-128.37036011 66.60388153 -129.11572021 66.58276306 -129.88366699 66.56100464 C-187.25453986 64.88914472 -187.25453986 64.88914472 -196 59 C-195.67 58.01 -195.34 57.02 -195 56 C-189.93431376 54.12647944 -184.85294718 53.4643917 -179.5 52.9375 C-178.6759668 52.85371094 -177.85193359 52.76992187 -177.00292969 52.68359375 C-169.80648825 51.99488758 -162.61216082 51.66794729 -155.39013672 51.38989258 C-137.26355105 50.6805914 -119.14327059 49.64548427 -101.125 47.5 C-100.12807129 47.38156738 -99.13114258 47.26313477 -98.10400391 47.14111328 C-89.40056523 46.23146714 -89.40056523 46.23146714 -81 44 C-80.34 43.01 -79.68 42.02 -79 41 C-78.34 41 -77.68 41 -77 41 C-76.34 39.68 -75.68 38.36 -75 37 C-86.95420096 35.89971382 -98.87434404 34.9409081 -110.875 34.5625 C-119.70844081 34.25604868 -128.46292134 33.58240177 -137.25 32.625 C-138.36358887 32.51099854 -139.47717773 32.39699707 -140.62451172 32.27954102 C-141.6610791 32.15893311 -142.69764648 32.0383252 -143.765625 31.9140625 C-144.68118164 31.8104541 -145.59673828 31.7068457 -146.54003906 31.60009766 C-149.30594314 30.92536639 -150.86102293 29.84491455 -153 28 C-152.505 26.515 -152.505 26.515 -152 25 C-138.02591595 19.24144888 -120.19602918 20.2763346 -105.32421875 19.28125 C-104.36968307 19.21711914 -103.4151474 19.15298828 -102.4316864 19.08691406 C-97.61303439 18.76382711 -92.79414758 18.44640624 -87.97436523 18.140625 C-61.0575435 16.64196735 -61.0575435 16.64196735 -35.5625 8.625 C-29.15521414 5.65409868 -22.74584838 3.68598656 -15.875 2.0625 C-14.98627197 1.85125488 -14.09754395 1.64000977 -13.18188477 1.42236328 C-8.70909341 0.42008333 -4.61449518 -0.24963662 0 0 Z " fill="#961212" transform="translate(278,190)"/>
<path d="M0 0 C0.80359489 -0.00322445 1.60718977 -0.00644889 2.43513602 -0.00977105 C3.31226368 -0.00822245 4.18939135 -0.00667385 5.09309864 -0.00507832 C6.49752562 -0.00847665 6.49752562 -0.00847665 7.93032485 -0.01194364 C11.07540029 -0.01828614 14.22043266 -0.0174541 17.3655138 -0.01662922 C19.61748275 -0.01962061 21.86945119 -0.02302309 24.12141895 -0.02680683 C30.24556075 -0.03565442 36.36968859 -0.0379853 42.49383616 -0.03862262 C47.60551025 -0.0395715 52.71718107 -0.04324968 57.82885391 -0.04679471 C69.20160525 -0.05447702 80.57434795 -0.05746308 91.94710102 -0.05678936 C92.62948388 -0.0567494 93.31186674 -0.05670945 94.01492786 -0.05666828 C94.69814646 -0.0566274 95.38136506 -0.05658652 96.08528725 -0.0565444 C107.1496608 -0.05613824 118.21400027 -0.0657 129.27836397 -0.07980665 C140.64533232 -0.09418441 152.0122789 -0.10089306 163.37925845 -0.10021287 C169.75838165 -0.09995796 176.13746631 -0.10280545 182.51658154 -0.11339092 C188.51902046 -0.12307888 194.52138406 -0.12314622 200.52382565 -0.11587429 C202.72441563 -0.11482923 204.92501031 -0.11718666 207.12559223 -0.12323475 C210.13511291 -0.1309689 213.14437443 -0.12630028 216.15388966 -0.11860371 C217.01986371 -0.12374727 217.88583777 -0.12889083 218.77805346 -0.13419026 C225.28731729 -0.09753395 232.33082711 -0.0358604 237.50345325 4.25363445 C237.97782825 4.87238445 238.45220325 5.49113445 238.94095325 6.12863445 C238.61095325 6.78863445 238.28095325 7.44863445 237.94095325 8.12863445 C236.95095325 7.63363445 236.95095325 7.63363445 235.94095325 7.12863445 C235.94095325 6.46863445 235.94095325 5.80863445 235.94095325 5.12863445 C232.97095325 4.79863445 230.00095325 4.46863445 226.94095325 4.12863445 C226.94095325 3.79863445 226.94095325 3.46863445 226.94095325 3.12863445 C197.21586476 3.0602113 167.49077892 3.00711299 137.76562865 2.97543846 C134.25709415 2.9716863 130.7485598 2.96780334 127.24002552 2.96383953 C126.54153322 2.9630526 125.84304091 2.96226567 125.12338217 2.96145489 C113.81031444 2.94839744 102.49729239 2.92474173 91.18425176 2.89717606 C79.57787213 2.86913129 67.97151916 2.85268475 56.36510724 2.84636897 C49.84517571 2.84245248 43.32534784 2.83322542 36.80544949 2.81144428 C30.67173743 2.79111883 24.53817197 2.78479271 18.40442944 2.78931141 C16.15055387 2.78848445 13.89667353 2.78249548 11.64282703 2.77101803 C8.57029351 2.75613583 5.49831663 2.75966546 2.42577076 2.7678709 C1.52985307 2.75913238 0.63393537 2.75039385 -0.28913134 2.74139053 C-5.09170854 2.77615909 -8.11180693 3.10898164 -12.05904675 6.12863445 C-13.04904675 6.78863445 -14.03904675 7.44863445 -15.05904675 8.12863445 C-13.6006786 4.28384571 -11.69446375 2.94634296 -8.05904675 1.12863445 C-5.31268772 0.30346169 -2.86171526 0.00291189 0 0 Z " fill="#90381C" transform="translate(177.0590467453003,306.8713655471802)"/>
<path d="M0 0 C61.38 0 122.76 0 186 0 C186 0.33 186 0.66 186 1 C181.8664247 1.99439691 178.00060376 2.12329792 173.75505066 2.12025452 C173.03615687 2.12110894 172.31726308 2.12196337 171.57658464 2.12284368 C169.17367085 2.12448755 166.77082725 2.11899504 164.36791992 2.11352539 C162.64306642 2.11324326 160.9182128 2.11340176 159.19335938 2.1139679 C154.5140421 2.11425485 149.83475046 2.10837456 145.15543914 2.10139394 C140.26405323 2.09514346 135.37266675 2.09455526 130.48127747 2.09336853 C121.22016286 2.09026022 111.95906007 2.08205356 102.69795066 2.07201904 C92.1539015 2.06084239 81.60985177 2.05534354 71.06579816 2.05032361 C49.37719219 2.03987054 27.68859684 2.02228076 6 2 C5.67 2.66 5.34 3.32 5 4 C5.515625 4.226875 6.03125 4.45375 6.5625 4.6875 C9.89547005 6.48217618 13.14703671 8.49965015 16 11 C16 11.66 16 12.32 16 13 C11.46002289 11.54753932 8.65506692 9.16368341 5.1875 5.9375 C4.68541016 5.47794922 4.18332031 5.01839844 3.66601562 4.54492188 C2.41909095 3.389608 1.20620984 2.19776004 0 1 C0 0.67 0 0.34 0 0 Z " fill="#F2650B" transform="translate(220,309)"/>
<path d="M0 0 C0.99 0.66 1.98 1.32 3 2 C1.53084287 5.87323243 -0.32905819 7.17955498 -4 9 C-6.85741138 9.37473011 -6.85741138 9.37473011 -10.05220032 9.3742218 C-11.2675647 9.38123611 -12.48292908 9.38825043 -13.73512268 9.39547729 C-15.07382368 9.3880502 -16.41252303 9.38031908 -17.7512207 9.37231445 C-19.16753405 9.3747437 -20.58384568 9.37846432 -22.00015259 9.38337708 C-25.84127202 9.39277411 -29.68213608 9.38336933 -33.52323556 9.37004495 C-37.54870905 9.35871235 -41.57417029 9.36283953 -45.59965515 9.36479187 C-52.36262165 9.36567458 -59.12548788 9.35460186 -65.88842773 9.33618164 C-73.69495 9.31504003 -81.50132512 9.31149884 -89.30787021 9.3177436 C-96.82836103 9.3234505 -104.34880029 9.31777433 -111.86928368 9.30657005 C-115.06405788 9.30193899 -118.2588004 9.30104377 -121.45357704 9.3031559 C-125.22191083 9.3050479 -128.99009619 9.29686519 -132.75839615 9.2810955 C-134.79168514 9.27486922 -136.82499669 9.27834718 -138.85829163 9.28216553 C-145.25647285 9.24512597 -150.8840146 8.92889715 -157 7 C-157 6.67 -157 6.34 -157 6 C-155.83047979 6.00276538 -155.83047979 6.00276538 -154.63733292 6.00558662 C-135.67564253 6.04973413 -116.71396239 6.08284121 -97.7522316 6.10362434 C-88.58252366 6.11394176 -79.41285 6.12801099 -70.24316406 6.15087891 C-62.25189687 6.17079853 -54.2606545 6.18371305 -46.26936316 6.18817699 C-42.03711102 6.19078679 -37.80492991 6.19693063 -33.5727005 6.21146011 C-29.59025722 6.22502147 -25.60791432 6.22922557 -21.62545013 6.22621536 C-20.16292272 6.22676617 -18.70039199 6.23075225 -17.23788452 6.23841095 C-15.24245627 6.24834898 -13.24697431 6.24478023 -11.25152588 6.24050903 C-10.13431278 6.24235262 -9.01709969 6.24419621 -7.86603165 6.24609566 C-5.0165414 6.00142035 -3.35780318 5.59134105 -1 4 C-0.19471111 1.94999129 -0.19471111 1.94999129 0 0 Z " fill="#C46125" transform="translate(413,324)"/>
<path d="M0 0 C0.33 0 0.66 0 1 0 C5.52886099 18.223274 5.52886099 18.223274 4 26 C2.44276047 28.12765121 2.44276047 28.12765121 0 30 C-2.66656993 30.38458868 -4.91716118 30.52435698 -7.58026123 30.48101807 C-8.34730322 30.48443577 -9.11434521 30.48785347 -9.9046309 30.49137473 C-12.47683893 30.49796746 -15.04800519 30.47595542 -17.62011719 30.45410156 C-19.46304805 30.45297338 -21.30598071 30.45360637 -23.14891052 30.45587158 C-28.1548694 30.45702081 -33.1604461 30.43347772 -38.16631603 30.40557575 C-43.39668537 30.38059684 -48.62706313 30.37822287 -53.85748291 30.37347412 C-63.76328039 30.36103403 -73.66890162 30.32819838 -83.57462144 30.28807616 C-94.85137925 30.24339065 -106.12814541 30.22137951 -117.40496969 30.20129442 C-140.6034109 30.1594667 -163.80169558 30.0890945 -187 30 C-187 29.67 -187 29.34 -187 29 C-186.05540043 28.99853344 -185.11080086 28.99706688 -184.13757706 28.99555588 C-161.17009088 28.95898649 -138.20275081 28.89957064 -115.23538589 28.81609726 C-104.1286011 28.77626118 -93.02188763 28.74389193 -81.91503906 28.72900391 C-72.23608367 28.71601105 -62.55728492 28.68910707 -52.87841773 28.64538693 C-47.75188883 28.6227188 -42.6255535 28.60709252 -37.49897003 28.60811615 C-32.67589891 28.60885961 -27.85325656 28.59103578 -23.03029633 28.55883217 C-21.25818333 28.55029765 -19.48602244 28.54860719 -17.71389771 28.55419731 C-15.29754979 28.56080561 -12.88257881 28.54299465 -10.46636963 28.51898193 C-9.40994495 28.53062256 -9.40994495 28.53062256 -8.33217835 28.54249835 C-4.94990697 28.48283073 -3.26071212 28.20357026 -0.55996323 26.09476089 C2.01414838 22.63817407 1.33530092 20.22479158 1 16 C0.67 15.01 0.34 14.02 0 13 C-0.06937062 10.77181559 -0.08457084 8.54165476 -0.0625 6.3125 C-0.05347656 5.13300781 -0.04445313 3.95351563 -0.03515625 2.73828125 C-0.01775391 1.38283203 -0.01775391 1.38283203 0 0 Z " fill="#D76922" transform="translate(399,270)"/>
<path d="M0 0 C5.44044141 0.4857537 10.60521158 1.34852785 15.94238281 2.51538086 C26.38295714 4.59074887 36.81694182 4.44088636 47.421875 4.44140625 C49.54177754 4.45320442 51.66167185 4.46657452 53.78155518 4.48143005 C59.31017452 4.51730363 64.83872074 4.53773354 70.36743164 4.55297852 C79.25640342 4.5779998 88.14521416 4.61743187 97.03403473 4.67487907 C100.12956056 4.69118338 103.22493219 4.6949811 106.32049561 4.69789124 C108.20943472 4.7076625 110.09837138 4.71792494 111.98730469 4.72875977 C113.2745343 4.72493034 113.2745343 4.72493034 114.58776855 4.72102356 C115.37790344 4.72785156 116.16803833 4.73467957 116.9821167 4.74171448 C117.66558544 4.74334878 118.34905418 4.74498308 119.0532341 4.74666691 C121.35533986 5.04624046 122.98849815 5.8684027 125 7 C112.01178669 7.09319637 99.02365458 7.16401489 86.03517342 7.20724869 C80.00233162 7.22801187 73.9697207 7.25612088 67.93701172 7.30175781 C62.10143683 7.34562085 56.26608226 7.36922154 50.43035507 7.37950897 C48.21790988 7.3868284 46.00547503 7.4011185 43.79312515 7.42292023 C28.73055639 7.5652818 14.04963878 7.06617752 0 1 C0 0.67 0 0.34 0 0 Z " fill="#9B1712" transform="translate(139,326)"/>
<path d="M0 0 C4.25645987 0.66532235 7.86028093 2.12113864 11.8125 3.8125 C25.7338237 9.5222305 39.98123743 12.21035372 55 13 C55.66 12.67 56.32 12.34 57 12 C57 12.99 57 13.98 57 15 C52.91611387 14.89008359 48.83314589 14.75946145 44.75 14.625 C43.59113281 14.5940625 42.43226563 14.563125 41.23828125 14.53125 C40.12324219 14.49257813 39.00820312 14.45390625 37.859375 14.4140625 C36.83295898 14.3826416 35.80654297 14.3512207 34.74902344 14.31884766 C32.00087679 14.00010169 30.38672656 13.32971055 28 12 C25.41467299 11.54935368 25.41467299 11.54935368 22.75 11.375 C21.85796875 11.30023438 20.9659375 11.22546875 20.046875 11.1484375 C19.03367187 11.07496094 19.03367187 11.07496094 18 11 C18 11.99 18 12.98 18 14 C19.32 14.33 20.64 14.66 22 15 C22 15.66 22 16.32 22 17 C22.680625 17.0825 23.36125 17.165 24.0625 17.25 C27.8746907 18.22332528 30.64070329 19.95807455 34 22 C33.01 22.495 33.01 22.495 32 23 C29.40429838 21.8927007 26.94047965 20.72816986 24.4375 19.4375 C23.71820313 19.07124512 22.99890625 18.70499023 22.2578125 18.32763672 C11.05537334 12.53718675 11.05537334 12.53718675 7 9 C7 8.34 7 7.68 7 7 C6.401875 6.731875 5.80375 6.46375 5.1875 6.1875 C3.00152146 5.00082594 1.58667406 3.90400887 0 2 C0 1.34 0 0.68 0 0 Z " fill="#881413" transform="translate(105,303)"/>
<path d="M0 0 C-3.18762365 2.12508244 -5.26512223 2.5020163 -9 3 C-9 3.99 -9 4.98 -9 6 C2.24763058 7.24436729 13.43754321 8.26117569 24.75463867 8.57006836 C30.36890927 8.76549657 35.5612279 9.5934915 41 11 C41 11.66 41 12.32 41 13 C41.99 13.33 42.98 13.66 44 14 C44 15.98 44 17.96 44 20 C44.99 20.33 45.98 20.66 47 21 C47.495 22.98 47.495 22.98 48 25 C58.23 25 68.46 25 79 25 C79 25.33 79 25.66 79 26 C74.37357074 26.07426356 69.74748991 26.12865492 65.12060547 26.16479492 C63.54730178 26.17986364 61.97403998 26.20032245 60.40087891 26.22631836 C58.13693904 26.26278738 55.87355543 26.27974508 53.609375 26.29296875 C52.90818542 26.30845261 52.20699585 26.32393646 51.48455811 26.33988953 C48.38350522 26.34095357 46.30807927 26.17600963 43.58984375 24.62304688 C41.63762107 22.63005296 41.02330877 20.98041524 40.25 18.3125 C40.00765625 17.50425781 39.7653125 16.69601562 39.515625 15.86328125 C39.34546875 15.24839844 39.1753125 14.63351562 39 14 C31.78034954 12.97207657 24.56391654 12.04458978 17.30859375 11.3046875 C16.12692627 11.18198486 14.94525879 11.05928223 13.7277832 10.93286133 C11.3638922 10.68985647 8.99914218 10.45503927 6.63354492 10.22924805 C0.00748855 9.54157965 -5.76970038 8.37439232 -12 6 C-12 4.68 -12 3.36 -12 2 C-8.09971775 -0.60018816 -4.52565431 -0.15085514 0 0 Z " fill="#A31310" transform="translate(133,274)"/>
<path d="M0 0 C0.96357422 -0.01224609 1.92714844 -0.02449219 2.91992188 -0.03710938 C9.04812855 -0.04967576 14.57201532 0.16076696 20 3.3125 C21.7942046 6.47874341 21.65791704 9.70606155 21.0625 13.1875 C19.6875 15.6875 19.6875 15.6875 17.0625 17.1875 C13.70155152 17.50357666 10.4268667 17.4186397 7.0625 17.1875 C7.0625 19.4975 7.0625 21.8075 7.0625 24.1875 C7.73796875 24.17589844 8.4134375 24.16429687 9.109375 24.15234375 C10.00140625 24.14332031 10.8934375 24.13429687 11.8125 24.125 C13.13507813 24.10759766 13.13507813 24.10759766 14.484375 24.08984375 C16.8443838 24.17923802 18.80748524 24.51837179 21.0625 25.1875 C21.0625 25.8475 21.0625 26.5075 21.0625 27.1875 C18.77010939 27.10071237 16.4785193 26.99254727 14.1875 26.875 C12.91132813 26.81699219 11.63515625 26.75898438 10.3203125 26.69921875 C9.24523437 26.53035156 8.17015625 26.36148438 7.0625 26.1875 C4.62480782 22.53096173 4.82305561 20.49749899 5.0625 16.1875 C6.87365956 14.37634044 9.67528227 14.80550552 12.125 14.625 C13.22972656 14.54121094 14.33445312 14.45742187 15.47265625 14.37109375 C16.32730469 14.31050781 17.18195313 14.24992188 18.0625 14.1875 C18.38028058 8.81191746 18.38028058 8.81191746 16.0625 4.1875 C13.47185381 3.68016998 11.26030357 3.44418089 8.6484375 3.359375 C7.91879791 3.3206427 7.18915833 3.2819104 6.43740845 3.24200439 C4.10458255 3.12234989 1.7715592 3.02963392 -0.5625 2.9375 C-2.14331563 2.8611446 -3.72404788 2.7830413 -5.3046875 2.703125 C-9.18161498 2.51094759 -13.0589321 2.3429207 -16.9375 2.1875 C-16.9375 1.8575 -16.9375 1.5275 -16.9375 1.1875 C-11.29004734 -0.00294112 -5.74332626 0.00382633 0 0 Z " fill="#AA571E" transform="translate(288.9375,165.8125)"/>
<path d="M0 0 C0 0.99 0 1.98 0 3 C-11.20821405 7.93161418 -23.62489358 8.27940077 -35.7109375 8.8515625 C-37.58865341 8.94719986 -37.58865341 8.94719986 -39.50430298 9.04476929 C-42.13097031 9.17713494 -44.75779649 9.30638284 -47.38476562 9.43261719 C-51.35851317 9.62420511 -55.33157554 9.82694659 -59.3046875 10.03125 C-71.87590216 10.66291291 -84.41088006 11.24753185 -97 11 C-97 10.67 -97 10.34 -97 10 C-90.96750893 9.15419303 -85.02208883 8.77469048 -78.9375 8.5625 C-59.62956414 7.78663576 -40.32004556 6.78560606 -21.125 4.5 C-19.62960693 4.32235107 -19.62960693 4.32235107 -18.10400391 4.14111328 C-8.38773514 3.52632391 -8.38773514 3.52632391 0 0 Z " fill="#871413" transform="translate(198,233)"/>
<path d="M0 0 C3.62359189 1.43240278 4.93555726 3.02701966 6.75 6.4375 C7.17796875 7.21996094 7.6059375 8.00242188 8.046875 8.80859375 C9 11 9 11 9 14 C9.66 14 10.32 14 11 14 C11.25394531 14.67546875 11.50789063 15.3509375 11.76953125 16.046875 C12.11371094 16.93890625 12.45789063 17.8309375 12.8125 18.75 C13.31716797 20.07257813 13.31716797 20.07257813 13.83203125 21.421875 C14.87447415 24.007226 14.87447415 24.007226 16.546875 25.92578125 C18.48335883 28.68995575 18.88165673 31.12160739 19.4375 34.4375 C19.64246094 35.54996094 19.84742188 36.66242188 20.05859375 37.80859375 C20 41 20 41 18.26953125 43.890625 C16 46 16 46 12.25 46.3125 C11.1775 46.209375 10.105 46.10625 9 46 C9 45.34 9 44.68 9 44 C9.969375 43.7525 10.93875 43.505 11.9375 43.25 C15.02462606 42.37845306 15.02462606 42.37845306 15.8125 40.41015625 C16.09356809 36.79726015 15.09088325 33.61096402 14.0625 30.1875 C13.84158691 29.44282471 13.62067383 28.69814941 13.39306641 27.9309082 C10.69758764 19.35892271 6.71244029 10.88610415 1.2578125 3.70703125 C0 2 0 2 0 0 Z " fill="#E86715" transform="translate(363,241)"/>
<path d="M0 0 C-1.47559669 4.42679007 -3.90057368 4.91432696 -8 7 C-8.66 7 -9.32 7 -10 7 C-10.33 7.99 -10.66 8.98 -11 10 C-11.99 10 -12.98 10 -14 10 C-14.226875 10.5775 -14.45375 11.155 -14.6875 11.75 C-16.34761639 14.59591381 -18.39187957 15.99841921 -21 18 C-24.37322603 21.13228131 -26.69552765 24.04447531 -29 28 C-29.50660156 28.81339844 -30.01320312 29.62679687 -30.53515625 30.46484375 C-32.76170979 34.06946879 -34.78040146 37.34120438 -36.125 41.375 C-37.14964816 44.44894448 -38.57703848 45.90010001 -41 48 C-38.43904143 34.42691959 -29.85004891 23.3449182 -20 14 C-19.51402344 13.47019531 -19.02804688 12.94039062 -18.52734375 12.39453125 C-14.18872785 7.74821209 -6.67040657 0 0 0 Z " fill="#FB530E" transform="translate(250,202)"/>
<path d="M0 0 C-2.92079514 2.92079514 -6.55182947 3.44114676 -10.4375 4.5 C-11.97920739 4.92221032 -13.51963662 5.3491225 -15.05859375 5.78125 C-15.74236084 5.96751953 -16.42612793 6.15378906 -17.13061523 6.34570312 C-19.29252987 7.01541436 -19.29252987 7.01541436 -22 9 C-24.0859375 9.30859375 -24.0859375 9.30859375 -26.375 9.4375 C-30.37448472 9.80460246 -32.62822822 10.75215214 -36 13 C-37.33764655 13.62027965 -38.69384151 14.20153024 -40.0625 14.75 C-40.71347656 15.01296875 -41.36445313 15.2759375 -42.03515625 15.546875 C-44.35118676 16.08098939 -45.76641004 15.73623901 -48 15 C-47.071875 14.731875 -46.14375 14.46375 -45.1875 14.1875 C-42.08719897 13.31208585 -42.08719897 13.31208585 -40.74609375 11.609375 C-38.17027617 9.23524336 -35.11506446 8.24515852 -31.875 7.0625 C-31.17648926 6.80452637 -30.47797852 6.54655273 -29.75830078 6.28076172 C-24.5358375 4.41451789 -19.26830915 2.91073167 -13.875 1.625 C-13.17745605 1.45750244 -12.47991211 1.29000488 -11.76123047 1.11743164 C-7.77391852 0.22209448 -4.0821982 -0.16532267 0 0 Z " fill="#A11509" transform="translate(278,190)"/>
<path d="M0 0 C3.61520689 1.18964263 7.09651324 1.76337455 10.875 2.19140625 C10.875 2.52140625 10.875 2.85140625 10.875 3.19140625 C11.844375 3.43890625 12.81375 3.68640625 13.8125 3.94140625 C14.823125 4.35390625 15.83375 4.76640625 16.875 5.19140625 C17.56640625 7.26953125 17.56640625 7.26953125 17.875 9.19140625 C9.65045692 6.61438275 9.65045692 6.61438275 6.125 4.69140625 C-3.85899211 0.08340989 -20.28776096 -3.42100676 -31.125 0.19140625 C-31.785 -0.13859375 -32.445 -0.46859375 -33.125 -0.80859375 C-33.125 -1.46859375 -33.125 -2.12859375 -33.125 -2.80859375 C-21.38294976 -5.50131956 -11.15577795 -3.72128338 0 0 Z " fill="#A54D18" transform="translate(316.125,206.80859375)"/>
<path d="M0 0 C25.74 0 51.48 0 78 0 C78 0.33 78 0.66 78 1 C42.36 1.495 42.36 1.495 6 2 C5.67 2.66 5.34 3.32 5 4 C5.515625 4.226875 6.03125 4.45375 6.5625 4.6875 C9.89547005 6.48217618 13.14703671 8.49965015 16 11 C16 11.66 16 12.32 16 13 C11.46002289 11.54753932 8.65506692 9.16368341 5.1875 5.9375 C4.68541016 5.47794922 4.18332031 5.01839844 3.66601562 4.54492188 C2.41909095 3.389608 1.20620984 2.19776004 0 1 C0 0.67 0 0.34 0 0 Z " fill="#E96614" transform="translate(220,309)"/>
<path d="M0 0 C0.89732849 -0.00315216 1.79465698 -0.00630432 2.71917725 -0.009552 C4.15224213 -0.00651566 4.15224213 -0.00651566 5.61425781 -0.00341797 C6.60363342 -0.00437469 7.59300903 -0.00533142 8.61236572 -0.00631714 C10.69681868 -0.00699611 12.78127379 -0.00516156 14.86572266 -0.00097656 C18.06970911 0.00439843 21.27355683 -0.00094276 24.47753906 -0.00732422 C26.50227896 -0.00666383 28.52701876 -0.00538349 30.55175781 -0.00341797 C31.51523132 -0.0054422 32.47870483 -0.00746643 33.47137451 -0.009552 C34.79845428 -0.00482376 34.79845428 -0.00482376 36.15234375 0 C37.32552155 0.00119339 37.32552155 0.00119339 38.5223999 0.00241089 C40.31738281 0.12939453 40.31738281 0.12939453 41.31738281 1.12939453 C42.99922229 1.36226461 44.68862441 1.54203619 46.37988281 1.69189453 C47.29898438 1.77568359 48.21808594 1.85947266 49.16503906 1.94580078 C50.23044922 2.03667969 50.23044922 2.03667969 51.31738281 2.12939453 C51.31738281 2.45939453 51.31738281 2.78939453 51.31738281 3.12939453 C30.95272092 3.25984718 10.66612634 2.99647608 -9.68261719 2.12939453 C-9.68261719 1.79939453 -9.68261719 1.46939453 -9.68261719 1.12939453 C-6.39966879 0.3977777 -3.36138806 0.00340544 0 0 Z " fill="#AD551F" transform="translate(278.6826171875,306.87060546875)"/>
<path d="M0 0 C0.85271484 0.30744141 0.85271484 0.30744141 1.72265625 0.62109375 C5.47909983 1.93177273 9.03446267 3.11730454 13 3.5625 C13.99 3.706875 14.98 3.85125 16 4 C16.33 4.66 16.66 5.32 17 6 C14.69 6 12.38 6 10 6 C10 6.99 10 7.98 10 9 C11.32 9.33 12.64 9.66 14 10 C14 10.66 14 11.32 14 12 C14.680625 12.0825 15.36125 12.165 16.0625 12.25 C19.8746907 13.22332528 22.64070329 14.95807455 26 17 C25.34 17.33 24.68 17.66 24 18 C21.31821727 16.87490136 18.77497849 15.6883239 16.1875 14.375 C15.47529297 14.03082031 14.76308594 13.68664062 14.02929688 13.33203125 C9.56185334 11.09211044 6.23904991 8.8308606 3 5 C3 4.34 3 3.68 3 3 C2.01 2.67 1.02 2.34 0 2 C0 1.34 0 0.68 0 0 Z " fill="#C30909" transform="translate(113,308)"/>
<path d="M0 0 C0.33 0 0.66 0 1 0 C5.52886099 18.223274 5.52886099 18.223274 4 26 C2.33203125 28.3203125 2.33203125 28.3203125 0 30 C-2.796875 30.390625 -2.796875 30.390625 -5.75 30.25 C-6.73484375 30.21390625 -7.7196875 30.1778125 -8.734375 30.140625 C-9.48203125 30.09421875 -10.2296875 30.0478125 -11 30 C-11 29.67 -11 29.34 -11 29 C-9.7625 28.9175 -8.525 28.835 -7.25 28.75 C-4.37901331 28.36821986 -3.00999327 28.00624579 -0.5 26.4375 C1.74390695 22.7911512 1.33768079 20.25477793 1 16 C0.67 15.01 0.34 14.02 0 13 C-0.06937062 10.77181559 -0.08457084 8.54165476 -0.0625 6.3125 C-0.05347656 5.13300781 -0.04445313 3.95351563 -0.03515625 2.73828125 C-0.02355469 1.83464844 -0.01195312 0.93101562 0 0 Z " fill="#C15E21" transform="translate(399,270)"/>
<path d="M0 0 C0.97453125 0.00451172 1.9490625 0.00902344 2.953125 0.01367188 C5.34381434 0.02539094 7.7343744 0.04179781 10.125 0.0625 C10.125 0.3925 10.125 0.7225 10.125 1.0625 C7.485 1.0625 4.845 1.0625 2.125 1.0625 C2.125 1.7225 2.125 2.3825 2.125 3.0625 C0.21074219 3.13597656 0.21074219 3.13597656 -1.7421875 3.2109375 C-3.41148072 3.28596191 -5.08075046 3.36150988 -6.75 3.4375 C-8.01263672 3.48390625 -8.01263672 3.48390625 -9.30078125 3.53125 C-10.50927734 3.58925781 -10.50927734 3.58925781 -11.7421875 3.6484375 C-12.48581543 3.6798584 -13.22944336 3.7112793 -13.99560547 3.74365234 C-16.11510974 3.91669551 -16.11510974 3.91669551 -17.875 6.0625 C-16.885 6.7225 -15.895 7.3825 -14.875 8.0625 C-17.185 7.7325 -19.495 7.4025 -21.875 7.0625 C-21.875 6.0725 -21.875 5.0825 -21.875 4.0625 C-15.44022258 -0.85821215 -7.70152716 -0.06783188 0 0 Z " fill="#92110E" transform="translate(149.875,211.9375)"/>
<path d="M0 0 C0.66 1.32 1.32 2.64 2 4 C0.22555028 6.24606427 -0.58352485 6.95081002 -3.48046875 7.29296875 C-4.82044922 7.24076172 -4.82044922 7.24076172 -6.1875 7.1875 C-7.53908203 7.14689453 -7.53908203 7.14689453 -8.91796875 7.10546875 C-9.60503906 7.07066406 -10.29210937 7.03585938 -11 7 C-11 9.31 -11 11.62 -11 14 C-9.98679687 13.98259766 -9.98679687 13.98259766 -8.953125 13.96484375 C-7.61507813 13.95130859 -7.61507813 13.95130859 -6.25 13.9375 C-4.92742187 13.92009766 -4.92742187 13.92009766 -3.578125 13.90234375 C-1.2181162 13.99173802 0.74498524 14.33087179 3 15 C3 15.66 3 16.32 3 17 C0.70760939 16.91321237 -1.5839807 16.80504727 -3.875 16.6875 C-5.15117187 16.62949219 -6.42734375 16.57148438 -7.7421875 16.51171875 C-8.81726563 16.34285156 -9.89234375 16.17398438 -11 16 C-13.43769218 12.34346173 -13.23944439 10.30999899 -13 6 C-11.18884044 4.18884044 -8.38721773 4.61800552 -5.9375 4.4375 C-4.83277344 4.35371094 -3.72804688 4.26992187 -2.58984375 4.18359375 C-1.30787109 4.09271484 -1.30787109 4.09271484 0 4 C0 2.68 0 1.36 0 0 Z " fill="#BB5A1B" transform="translate(307,176)"/>
<path d="M0 0 C-3.18762365 2.12508244 -5.26512223 2.5020163 -9 3 C-9 3.99 -9 4.98 -9 6 C-8.12263184 6.07516846 -8.12263184 6.07516846 -7.22753906 6.15185547 C-4.56754819 6.38451235 -1.90884651 6.62962436 0.75 6.875 C1.67039063 6.95363281 2.59078125 7.03226562 3.5390625 7.11328125 C4.42851562 7.19707031 5.31796875 7.28085937 6.234375 7.3671875 C7.05131836 7.44050293 7.86826172 7.51381836 8.70996094 7.58935547 C11.11762049 8.02109144 12.87909392 8.80326384 15 10 C5.98136859 10.43874423 -3.75347816 10.12326092 -12 6 C-12 4.68 -12 3.36 -12 2 C-8.09971775 -0.60018816 -4.52565431 -0.15085514 0 0 Z " fill="#941515" transform="translate(133,274)"/>
<path d="M0 0 C5.52578877 0.493374 10.81812493 1.36374042 16.25 2.5 C26.07623472 4.49445749 36.00209213 4.7360529 46 5 C46 5.33 46 5.66 46 6 C10.45127225 6.96751483 10.45127225 6.96751483 0 0 Z " fill="#9F1111" transform="translate(139,326)"/>
<path d="M0 0 C3.465 1.485 3.465 1.485 7 3 C7 3.66 7 4.32 7 5 C7.763125 5.28875 8.52625 5.5775 9.3125 5.875 C12 7 12 7 15 9 C15 9.66 15 10.32 15 11 C15.556875 11.226875 16.11375 11.45375 16.6875 11.6875 C19.66159588 13.37550036 21.72008865 15.46676517 24 18 C24 18.66 24 19.32 24 20 C24.66 20 25.32 20 26 20 C26.33 20.99 26.66 21.98 27 23 C26.34 23.33 25.68 23.66 25 24 C20 18.25 20 18.25 20 16 C18.02 15.34 16.04 14.68 14 14 C14 13.01 14 12.02 14 11 C13.01 11 12.02 11 11 11 C8.3125 8.625 8.3125 8.625 6 6 C6 5.34 6 4.68 6 4 C4.35 3.67 2.7 3.34 1 3 C0.67 2.01 0.34 1.02 0 0 Z " fill="#B05A1B" transform="translate(327,224)"/>
<path d="M0 0 C0.66 0 1.32 0 2 0 C1.649375 0.680625 1.29875 1.36125 0.9375 2.0625 C-0.22620603 5.7087789 0.27154898 8.28489978 1 12 C2.15628906 12.09087891 2.15628906 12.09087891 3.3359375 12.18359375 C4.33882813 12.26738281 5.34171875 12.35117188 6.375 12.4375 C7.87160156 12.55931641 7.87160156 12.55931641 9.3984375 12.68359375 C12 13 12 13 14 14 C14 16.64 14 19.28 14 22 C13.34 22 12.68 22 12 22 C12 19.69 12 17.38 12 15 C11.32453125 15.03480469 10.6490625 15.06960937 9.953125 15.10546875 C9.06109375 15.13253906 8.1690625 15.15960938 7.25 15.1875 C6.36828125 15.22230469 5.4865625 15.25710937 4.578125 15.29296875 C1.44318614 14.9367257 0.14831213 14.30744636 -2 12 C-2.390625 9.51953125 -2.390625 9.51953125 -2.25 6.8125 C-2.21390625 5.91144531 -2.1778125 5.01039063 -2.140625 4.08203125 C-2.07101562 3.05142578 -2.07101562 3.05142578 -2 2 C-1.34 2 -0.68 2 0 2 C0 1.34 0 0.68 0 0 Z " fill="#B55720" transform="translate(270,168)"/>
<path d="M0 0 C2.34467153 2.11151106 3.53479168 3.82775221 4.5703125 6.80078125 C4.82683594 7.53103516 5.08335937 8.26128906 5.34765625 9.01367188 C5.60417969 9.77228516 5.86070312 10.53089844 6.125 11.3125 C6.38925781 12.05951172 6.65351563 12.80652344 6.92578125 13.57617188 C8.35247474 17.70054721 9.4332735 21.65279303 10 26 C6.58862797 23.72575198 6.58146338 22.83418405 5.671875 19.0546875 C4.88180843 16.63855369 3.70682762 14.72484934 2.375 12.5625 C-0.23541825 8.10718205 -0.46349207 5.09841282 0 0 Z " fill="#B2511B" transform="translate(361,258)"/>
<path d="M0 0 C0.99 0.66 1.98 1.32 3 2 C1.84826645 4.46800047 0.95216435 6.04783565 -1 8 C-4.08524939 8.17553419 -7.07964202 8.23122797 -10.1640625 8.1953125 C-11.52487442 8.19106766 -11.52487442 8.19106766 -12.91317749 8.18673706 C-15.81725123 8.17552153 -18.72101912 8.15041463 -21.625 8.125 C-23.59114139 8.11497197 -25.5572876 8.10584581 -27.5234375 8.09765625 C-32.34907659 8.07557772 -37.1744864 8.04103865 -42 8 C-42 7.67 -42 7.34 -42 7 C-40.90010742 6.98018066 -39.80021484 6.96036133 -38.66699219 6.93994141 C-34.58163778 6.86380099 -30.49663562 6.77509664 -26.41162109 6.68261719 C-24.6444393 6.64436229 -22.87718056 6.6095033 -21.10986328 6.578125 C-18.56775437 6.53239848 -16.02617352 6.47441711 -13.484375 6.4140625 C-12.69569031 6.40251129 -11.90700562 6.39096008 -11.09442139 6.37905884 C-5.72302417 6.27868947 -5.72302417 6.27868947 -1 4 C-0.19471111 1.94999129 -0.19471111 1.94999129 0 0 Z " fill="#E36A1E" transform="translate(413,324)"/>
<path d="M0 0 C1.98 0.99 1.98 0.99 4 2 C4 2.66 4 3.32 4 4 C4.58265625 4.2578125 5.1653125 4.515625 5.765625 4.78125 C8.1802903 6.09834017 9.81740177 7.55088384 11.75 9.5 C12.36359375 10.1084375 12.9771875 10.716875 13.609375 11.34375 C15 13 15 13 15 15 C15.66 15 16.32 15 17 15 C17.33 16.32 17.66 17.64 18 19 C17.34 19 16.68 19 16 19 C16 18.34 16 17.68 16 17 C14.35 16.67 12.7 16.34 11 16 C11 15.01 11 14.02 11 13 C10.01 12.34 9.02 11.68 8 11 C8 10.01 8 9.02 8 8 C6.68 8 5.36 8 4 8 C1.56993983 6.28995766 1.05539884 5.21655911 0.3125 2.3125 C0.209375 1.549375 0.10625 0.78625 0 0 Z " fill="#BB5918" transform="translate(360,214)"/>
<path d="M0 0 C0 0.33 0 0.66 0 1 C-10.395 2.485 -10.395 2.485 -21 4 C-21 4.99 -21 5.98 -21 7 C-20.34 7.33 -19.68 7.66 -19 8 C-21.97 7.67 -24.94 7.34 -28 7 C-28 6.01 -28 5.02 -28 4 C-18.80384203 0.3896565 -9.79880299 -0.18488308 0 0 Z " fill="#C4080A" transform="translate(152,273)"/>
<path d="M0 0 C8.39001357 1.29523251 16.08853669 4.0132516 24 7 C24 7.33 24 7.66 24 8 C18.96997515 8.22144764 14.59457128 7.43896072 9.75 6.25 C9.03070313 6.09273437 8.31140625 5.93546875 7.5703125 5.7734375 C2.34819637 4.50213582 2.34819637 4.50213582 0.515625 1.859375 C0.34546875 1.24578125 0.1753125 0.6321875 0 0 Z " fill="#C05819" transform="translate(313,192)"/>
<path d="M0 0 C2.62517319 0.14313589 5.25013809 0.28882457 7.875 0.4375 C8.6491626 0.48116699 9.4233252 0.52483398 10.22094727 0.56982422 C15.24137732 0.86449594 20.22411328 1.28059071 25.21484375 1.9140625 C27.10582335 2.15113176 27.10582335 2.15113176 29 1 C29 1.99 29 2.98 29 4 C24.91585562 3.91912143 20.83320414 3.80627597 16.75 3.6875 C15.59113281 3.66494141 14.43226563 3.64238281 13.23828125 3.61914062 C12.12324219 3.58369141 11.00820312 3.54824219 9.859375 3.51171875 C8.83295898 3.48553467 7.80654297 3.45935059 6.74902344 3.43237305 C3.68846573 2.95100114 2.27885191 2.04762948 0 0 Z " fill="#9C1312" transform="translate(133,314)"/>
<path d="M0 0 C6.90555567 -0.62777779 12.57829342 1.63321514 19 4 C19.84175781 4.30808594 20.68351562 4.61617187 21.55078125 4.93359375 C23.37196478 5.60966366 25.18686235 6.30263937 27 7 C27 7.33 27 7.66 27 8 C19.58379888 7.24581006 19.58379888 7.24581006 16.625 6 C13.1494159 4.67596796 9.80427156 4.56238293 6.109375 4.34375 C5.41328125 4.2303125 4.7171875 4.116875 4 4 C3.67 3.34 3.34 2.68 3 2 C2.01 1.34 1.02 0.68 0 0 Z " fill="#B95A1C" transform="translate(300,216)"/>
<path d="M0 0 C3.62359189 1.43240278 4.93555726 3.02701966 6.75 6.4375 C7.17796875 7.21996094 7.6059375 8.00242188 8.046875 8.80859375 C9 11 9 11 9 14 C9.66 14 10.32 14 11 14 C13.21854707 18.62197306 14.38281159 21.76824163 14 27 C12.52275168 24.78412753 11.34569644 22.78780923 10.1953125 20.41796875 C9.85886719 19.73283203 9.52242188 19.04769531 9.17578125 18.34179688 C8.4813788 16.91814278 7.78863934 15.49367621 7.09765625 14.06835938 C5.47663055 10.77391741 3.82820369 7.63938315 1.7421875 4.61328125 C0 2 0 2 0 0 Z " fill="#A5521D" transform="translate(363,241)"/>
<path d="M0 0 C-3.33633215 1.87160096 -5.86832447 2.98214569 -9.6875 3.5 C-12.94668842 3.64498489 -12.94668842 3.64498489 -14.3828125 5.45703125 C-16.53305305 7.50858926 -18.28445589 7.69737567 -21.1875 8.1875 C-22.08855469 8.34605469 -22.98960937 8.50460938 -23.91796875 8.66796875 C-24.60503906 8.77753906 -25.29210937 8.88710937 -26 9 C-23.68808231 4.37616462 -15.83072136 2.66872183 -11.1875 0.97265625 C-4.02747738 -1.33943439 -4.02747738 -1.33943439 0 0 Z " fill="#F65111" transform="translate(276,193)"/>
<path d="M0 0 C0.33 0.99 0.66 1.98 1 3 C1.66 3 2.32 3 3 3 C5.875 9.625 5.875 9.625 7 13 C11.62 13 16.24 13 21 13 C21 13.33 21 13.66 21 14 C15.39 14 9.78 14 4 14 C-0.57142857 4.42857143 -0.57142857 4.42857143 0 0 Z " fill="#FA5C0E" transform="translate(208,285)"/>
<path d="M0 0 C3.94120709 0.56302958 6.7508723 1.6791945 10 4 C10 4.66 10 5.32 10 6 C10.680625 6.0825 11.36125 6.165 12.0625 6.25 C15.8746907 7.22332528 18.64070329 8.95807455 22 11 C21.01 11.495 21.01 11.495 20 12 C17.30006134 10.85178433 14.73244815 9.64391379 12.125 8.3125 C11.40441406 7.95994141 10.68382813 7.60738281 9.94140625 7.24414062 C6.01198322 5.2649561 2.91917198 3.38532248 0 0 Z " fill="#8D1413" transform="translate(117,314)"/>
<path d="M0 0 C4.63910708 1.33833732 8.20224598 3.22510278 12.1875 5.9375 C13.21230469 6.62714844 14.23710937 7.31679687 15.29296875 8.02734375 C17.4285803 9.58359748 19.22808853 11.05759534 21 13 C17.62537285 12.45276317 15.91765 11.9451 13 10 C13 9.34 13 8.68 13 8 C10.69 7.34 8.38 6.68 6 6 C6 5.34 6 4.68 6 4 C4.35 3.67 2.7 3.34 1 3 C0.67 2.01 0.34 1.02 0 0 Z " fill="#A04C1A" transform="translate(339,201)"/>
<path d="M0 0 C0.67611328 -0.01224609 1.35222656 -0.02449219 2.04882812 -0.03710938 C3.80497427 -0.0423516 5.56061122 0.06517877 7.3125 0.1875 C7.9725 0.8475 8.6325 1.5075 9.3125 2.1875 C7.52392578 2.27837891 7.52392578 2.27837891 5.69921875 2.37109375 C4.13280075 2.45551149 2.56639512 2.54015887 1 2.625 C0.21431641 2.66431641 -0.57136719 2.70363281 -1.38085938 2.74414062 C-2.13818359 2.78603516 -2.89550781 2.82792969 -3.67578125 2.87109375 C-4.37227783 2.90775146 -5.06877441 2.94440918 -5.78637695 2.98217773 C-7.9091572 3.14331153 -7.9091572 3.14331153 -10.6875 4.1875 C-11.3475 3.8575 -12.0075 3.5275 -12.6875 3.1875 C-12.6875 2.5275 -12.6875 1.8675 -12.6875 1.1875 C-8.4289514 0.15787026 -4.37400978 0.02142022 0 0 Z " fill="#E56B1C" transform="translate(295.6875,202.8125)"/>
<path d="M0 0 C2.97 0.495 2.97 0.495 6 1 C6.33 2.32 6.66 3.64 7 5 C8.65 5 10.3 5 12 5 C12 6.98 12 8.96 12 11 C7.36279281 7.72469104 3.31457218 4.69564393 0 0 Z " fill="#C55719" transform="translate(344,222)"/>
<path d="M0 0 C2.7885289 -0.22107787 5.34653181 -0.28107535 8.125 -0.1875 C8.87910156 -0.17396484 9.63320313 -0.16042969 10.41015625 -0.14648438 C12.27374127 -0.11109985 14.13695978 -0.05729167 16 0 C16 0.33 16 0.66 16 1 C15.13117188 1.08636719 14.26234375 1.17273438 13.3671875 1.26171875 C6.37285418 2.11449541 1.84801244 2.73644363 -3 8 C-2.45276317 4.62537285 -1.9451 2.91765 0 0 Z " fill="#EA6715" transform="translate(272,168)"/>
<path d="M0 0 C2.97 0.495 2.97 0.495 6 1 C5.67 1.99 5.34 2.98 5 4 C5.515625 4.226875 6.03125 4.45375 6.5625 4.6875 C9.89547005 6.48217618 13.14703671 8.49965015 16 11 C16 11.66 16 12.32 16 13 C11.46002289 11.54753932 8.65506692 9.16368341 5.1875 5.9375 C4.68541016 5.47794922 4.18332031 5.01839844 3.66601562 4.54492188 C2.41909095 3.389608 1.20620984 2.19776004 0 1 C0 0.67 0 0.34 0 0 Z " fill="#F95314" transform="translate(220,309)"/>
<path d="M0 0 C0.88945312 0.00644531 1.77890625 0.01289063 2.6953125 0.01953125 C3.61570313 0.03628906 4.53609375 0.05304688 5.484375 0.0703125 C6.42023438 0.07933594 7.35609375 0.08835938 8.3203125 0.09765625 C10.62526157 0.12117614 12.9296866 0.15404397 15.234375 0.1953125 C15.234375 0.5253125 15.234375 0.8553125 15.234375 1.1953125 C13.32011719 1.26878906 13.32011719 1.26878906 11.3671875 1.34375 C9.69789428 1.41877441 8.02862454 1.49432238 6.359375 1.5703125 C5.09673828 1.61671875 5.09673828 1.61671875 3.80859375 1.6640625 C2.60009766 1.72207031 2.60009766 1.72207031 1.3671875 1.78125 C0.62355957 1.8126709 -0.12006836 1.8440918 -0.88623047 1.87646484 C-3.00573474 2.04950801 -3.00573474 2.04950801 -4.765625 4.1953125 C-3.775625 4.8553125 -2.785625 5.5153125 -1.765625 6.1953125 C-4.075625 5.8653125 -6.385625 5.5353125 -8.765625 5.1953125 C-8.765625 4.2053125 -8.765625 3.2153125 -8.765625 2.1953125 C-5.70405846 0.41862027 -3.52526285 -0.04519568 0 0 Z " fill="#BD0D10" transform="translate(136.765625,213.8046875)"/>
<path d="M0 0 C0.56847656 0.19335938 1.13695312 0.38671875 1.72265625 0.5859375 C6.45364938 2.18136423 11.18794425 3.66900586 16 5 C16 5.33 16 5.66 16 6 C12.04 6 8.08 6 4 6 C4 5.34 4 4.68 4 4 C2.68 3.67 1.36 3.34 0 3 C0 2.01 0 1.02 0 0 Z " fill="#D01001" transform="translate(240,325)"/>
<path d="M0 0 C0.33 0 0.66 0 1 0 C1.53181175 2.24743045 2.05007126 4.49807102 2.5625 6.75 C2.85253906 8.00296875 3.14257812 9.2559375 3.44140625 10.546875 C3.93444283 13.59473748 4.07666879 15.17641828 3 18 C3 17.34 3 16.68 3 16 C2.34 16 1.68 16 1 16 C-0.14077657 12.57767028 -0.09815117 9.91326783 -0.0625 6.3125 C-0.05347656 5.13300781 -0.04445313 3.95351563 -0.03515625 2.73828125 C-0.02355469 1.83464844 -0.01195312 0.93101562 0 0 Z " fill="#A94B14" transform="translate(399,270)"/>
<path d="M0 0 C1.91924787 0.22934409 3.8354406 0.48434343 5.75 0.75 C7.35101563 0.95882813 7.35101563 0.95882813 8.984375 1.171875 C12.39974598 2.1097748 13.75507663 3.31916918 16 6 C15.67 6.66 15.34 7.32 15 8 C14.34 7.67 13.68 7.34 13 7 C13 6.34 13 5.68 13 5 C12.39671875 4.97421875 11.7934375 4.9484375 11.171875 4.921875 C10.37265625 4.86515625 9.5734375 4.8084375 8.75 4.75 C7.56664062 4.68039062 7.56664062 4.68039062 6.359375 4.609375 C3.32101328 3.82463257 2.03158688 2.32980147 0 0 Z " fill="#A04C18" transform="translate(400,307)"/>
<path d="M0 0 C-1.32 0.33 -2.64 0.66 -4 1 C-4 1.99 -4 2.98 -4 4 C-0.04 4.33 3.92 4.66 8 5 C8 5.66 8 6.32 8 7 C6.24908981 6.91245449 4.49920449 6.80426627 2.75 6.6875 C1.77546875 6.62949219 0.8009375 6.57148438 -0.203125 6.51171875 C-3.25341611 5.95363476 -4.70711276 5.03630224 -7 3 C-6.67 2.01 -6.34 1.02 -6 0 C-3.50907189 -1.24546405 -2.58919267 -0.7767578 0 0 Z " fill="#7B1418" transform="translate(132,215)"/>
<path d="M0 0 C4.35026453 0.65913099 7.98405783 2.23862185 12 4 C13.670625 4.5259375 13.670625 4.5259375 15.375 5.0625 C18 6 18 6 19 8 C11.93463111 6.74646681 6.28543527 4.43796251 0 1 C0 0.67 0 0.34 0 0 Z " fill="#FB510F" transform="translate(236,322)"/>
<path d="M0 0 C0.33 0 0.66 0 1 0 C1.33 2.31 1.66 4.62 2 7 C6.29 7.33 10.58 7.66 15 8 C15 8.33 15 8.66 15 9 C12.87631556 9.22134176 10.75095976 9.42670007 8.625 9.625 C6.84996094 9.79902344 6.84996094 9.79902344 5.0390625 9.9765625 C4.03617187 9.98429688 3.03328125 9.99203125 2 10 C0 8 0 8 -0.1953125 6.0546875 C-0.13020833 4.03645833 -0.06510417 2.01822917 0 0 Z " fill="#AF5015" transform="translate(284,207)"/>
<path d="M0 0 C3.5 1.1875 3.5 1.1875 5.5 3.1875 C5.5 4.1775 5.5 5.1675 5.5 6.1875 C4.03775201 5.76326756 2.58026588 5.32259755 1.125 4.875 C0.31289063 4.63136719 -0.49921875 4.38773438 -1.3359375 4.13671875 C-3.5 3.1875 -3.5 3.1875 -5.5 0.1875 C-3.5 -0.8125 -3.5 -0.8125 0 0 Z " fill="#C65815" transform="translate(328.5,209.8125)"/>
<path d="M0 0 C3.67882073 3.28466137 5.75150101 6.66360908 8 11 C8 11.66 8 12.32 8 13 C4.23145777 11.74381926 3.92041544 10.33985294 2 7 C1.34 6.67 0.68 6.34 0 6 C0 4.02 0 2.04 0 0 Z " fill="#A55019" transform="translate(381,235)"/>
<path d="M0 0 C3.14318972 1.57159486 3.46088309 4.22861392 4.6875 7.4375 C5.14511719 8.61183594 5.60273438 9.78617187 6.07421875 10.99609375 C7 14 7 14 6 16 C4.9901527 14.08850332 3.99245505 12.17058431 3 10.25 C2.443125 9.18265625 1.88625 8.1153125 1.3125 7.015625 C0 4 0 4 0 0 Z " fill="#A8511E" transform="translate(392,254)"/>
<path d="M0 0 C0.99 0 1.98 0 3 0 C5.1519437 3.22791555 5.20086443 4.28400809 5 8 C3.68 7.67 2.36 7.34 1 7 C0.67 4.69 0.34 2.38 0 0 Z " fill="#DB6413" transform="translate(387,248)"/>
<path d="M0 0 C3.68754757 0.49831724 5.60490662 1.10067643 8 4 C7.67 4.99 7.34 5.98 7 7 C4.13302508 5.71480435 2.02392288 4.42870746 0 2 C0 1.34 0 0.68 0 0 Z " fill="#841D25" transform="translate(105,303)"/>
<path d="M0 0 C2.31459868 1.81817001 2.95377187 2.75615543 3.51171875 5.69921875 C3.56972656 6.68535156 3.62773437 7.67148437 3.6875 8.6875 C3.75324219 9.68136719 3.81898438 10.67523438 3.88671875 11.69921875 C3.92410156 12.45847656 3.96148437 13.21773438 4 14 C1.46663323 11.46663323 0.09955415 9.62397714 -0.125 5.9609375 C-0.125 3.97352151 -0.06621043 1.98631279 0 0 Z " fill="#D15D13" transform="translate(361,258)"/>
<path d="M0 0 C1.98 0 3.96 0 6 0 C6.33 2.64 6.66 5.28 7 8 C6.01 7.34 5.02 6.68 4 6 C4 5.34 4 4.68 4 4 C3.34 4 2.68 4 2 4 C1.34 2.68 0.68 1.36 0 0 Z " fill="#C65717" transform="translate(356,233)"/>
<path d="M0 0 C3.465 1.485 3.465 1.485 7 3 C7 3.66 7 4.32 7 5 C7.804375 5.28875 8.60875 5.5775 9.4375 5.875 C12 7 12 7 13 9 C10.625 8.75 10.625 8.75 8 8 C7.33333333 6.66666667 6.66666667 5.33333333 6 4 C3.44480079 3.18828772 3.44480079 3.18828772 1 3 C0.67 2.01 0.34 1.02 0 0 Z " fill="#AE551C" transform="translate(327,224)"/>
<path d="M0 0 C0.99 0.33 1.98 0.66 3 1 C3 2.98 3 4.96 3 7 C3.99 7.33 4.98 7.66 6 8 C6.33 8.99 6.66 9.98 7 11 C5.68 11 4.36 11 3 11 C2.01 7.37 1.02 3.74 0 0 Z " fill="#BD0A10" transform="translate(174,287)"/>
<path d="M0 0 C2 1 2 1 3.125 3.0625 C4.2583306 6.86725273 4.13434296 10.0368828 4 14 C1.90284215 10.85426323 1.47995441 8.98543749 0.875 5.3125 C0.70742188 4.31863281 0.53984375 3.32476562 0.3671875 2.30078125 C0.24601562 1.54152344 0.12484375 0.78226562 0 0 Z " fill="#A04E1A" transform="translate(377,268)"/>
<path d="M0 0 C0.99 0.66 1.98 1.32 3 2 C1.84826645 4.46800047 0.95216435 6.04783565 -1 8 C-1.99 8 -2.98 8 -4 8 C-4.33 7.01 -4.66 6.02 -5 5 C-3.68 4.67 -2.36 4.34 -1 4 C-0.67 2.68 -0.34 1.36 0 0 Z " fill="#B25014" transform="translate(413,324)"/>
<path d="M0 0 C0.33 0 0.66 0 1 0 C1.49230769 7.26153846 1.49230769 7.26153846 -1 11 C-1.66 11.66 -2.32 12.32 -3 13 C-3.66 12.67 -4.32 12.34 -5 12 C-4.360625 10.948125 -3.72125 9.89625 -3.0625 8.8125 C-1.38245548 5.89171588 -0.41003948 3.3828257 0 0 Z " fill="#BF0B11" transform="translate(184,256)"/>
<path d="M0 0 C5.78898419 -0.20674944 10.42932723 0.40837921 16 2 C16 2.33 16 2.66 16 3 C10.22192976 3.2358396 5.48675196 2.86783046 0 1 C0 0.67 0 0.34 0 0 Z " fill="#E76714" transform="translate(292,216)"/>
<path d="M0 0 C3.52269485 -0.4025937 4.79940808 -0.13372795 7.8125 1.875 C8.534375 2.57625 9.25625 3.2775 10 4 C10 4.66 10 5.32 10 6 C6.00499382 4.6302836 3.19990508 2.74277578 0 0 Z " fill="#B8531C" transform="translate(334,216)"/>
<path d="M0 0 C2.3125 -0.3125 2.3125 -0.3125 5 0 C6.8125 2.5 6.8125 2.5 8 5 C7.01 5.99 6.02 6.98 5 8 C5 6.68 5 5.36 5 4 C4.34 3.67 3.68 3.34 3 3 C3 2.34 3 1.68 3 1 C2.01 0.67 1.02 0.34 0 0 Z " fill="#E56311" transform="translate(333,200)"/>
<path d="M0 0 C0.5625 1.9375 0.5625 1.9375 1 4 C0 5 0 5 -3.5625 5.0625 C-4.696875 5.041875 -5.83125 5.02125 -7 5 C-7 4.34 -7 3.68 -7 3 C-5.5459375 2.5359375 -5.5459375 2.5359375 -4.0625 2.0625 C-1.15934208 1.30476658 -1.15934208 1.30476658 0 0 Z " fill="#AC4C14" transform="translate(379,282)"/>
<path d="M0 0 C3.82669043 3.42388092 5.72278474 6.00724943 7 11 C6.01 10.67 5.02 10.34 4 10 C4 8.68 4 7.36 4 6 C3.34 6 2.68 6 2 6 C1.34 4.02 0.68 2.04 0 0 Z " fill="#A74F17" transform="translate(354,247)"/>
<path d="M0 0 C1.32 0 2.64 0 4 0 C4 0.66 4 1.32 4 2 C4.99 2.33 5.98 2.66 7 3 C7 3.99 7 4.98 7 6 C5.68 5.67 4.36 5.34 3 5 C3 4.01 3 3.02 3 2 C2.01 2 1.02 2 0 2 C0 1.34 0 0.68 0 0 Z " fill="#CE6118" transform="translate(338,233)"/>
<path d="M0 0 C1.98362069 2.91708924 1.9876191 4.12380904 1.625 7.75 C1.41875 8.8225 1.2125 9.895 1 11 C-0.98362069 8.08291076 -0.9876191 6.87619096 -0.625 3.25 C-0.41875 2.1775 -0.2125 1.105 0 0 Z " fill="#994B1B" transform="translate(416,315)"/>
<path d="M0 0 C0.66 0 1.32 0 2 0 C1 3 1 3 -1.8125 4.75 C-4.96403086 5.98589446 -5.96929372 6.28222189 -9 5 C-8.071875 4.731875 -7.14375 4.46375 -6.1875 4.1875 C-3.1688359 3.06289965 -2.0844857 2.29293427 0 0 Z " fill="#9C0E11" transform="translate(239,200)"/>
<path d="M0 0 C4.29 0 8.58 0 13 0 C13 0.33 13 0.66 13 1 C11.20994059 1.36220266 9.41787943 1.71452469 7.625 2.0625 C6.12839844 2.35833984 6.12839844 2.35833984 4.6015625 2.66015625 C2 3 2 3 0 2 C0 1.34 0 0.68 0 0 Z " fill="#B15315" transform="translate(283,204)"/>
<path d="M0 0 C3.3 0.99 6.6 1.98 10 3 C10 3.33 10 3.66 10 4 C6.05272412 4.17942163 3.4019487 4.09350689 0 2 C0 1.34 0 0.68 0 0 Z " fill="#9E4A19" transform="translate(327,196)"/>
</svg>
